<svg xmlns="http://www.w3.org/2000/svg" width="100" height="95" viewBox="0 0 612 612">
  <path d="M600.388 65.515c-7.707-7.883-16.913-11.945-28.193-11.945H40.138c-11.28 0-20.82 4.062-28.533 11.945C4.062 73.22 0 82.76 0 93.708v424.584c0 10.948 3.892 20.65 11.605 28.526 7.55 7.713 17.252 11.612 28.533 11.612h532.056c11.28 0 20.65-3.9 28.193-11.612C608.1 538.94 612 529.24 612 518.292V93.708c0-10.948-4.062-20.487-11.612-28.193zm-24.874 452.777c0 2.32-.998 3.32-3.32 3.32H40.14c-2.328 0-3.32-1-3.32-3.32V93.708c0-2.32.992-3.32 3.32-3.32h532.056c2.32 0 3.32 1 3.32 3.32v424.584z" fill="#193667"/>
  <path d="M438.187 269.842c17.578 0 31.844-14.592 31.844-32.177 0-16.913-14.265-31.18-31.843-31.18-16.92 0-31.18 14.267-31.18 31.18 0 17.585 14.26 32.177 31.18 32.177zM344.31 380.3L209.967 199.855 88.23 448.965 71.982 485.79h465.38L411.65 321.926" fill="#193667"/>
</svg>
