<svg xmlns="http://www.w3.org/2000/svg" width="100" height="95" viewBox="0 0 100 100">
  <path d="M62.924 94.73c-1.732-1.275-1.918-3.19-1.918-3.19l-.65-4.154H39.642l-.652 4.152s-.18 1.916-1.914 3.19c-1.732 1.274-3.1 2.368-1.732 2.554 1.317.178 13.74.016 14.656 0 .918.016 13.338.178 14.654 0 1.366-.184-.002-1.276-1.73-2.553zM26.666 61.538c5.534-.043 6.223-1.377 8.027-6.933 3.327-8.768 18.31 2.296 9.024 6.136-9.285 3.843-22.585.84-17.05.798z" fill="#193667"/>
  <path d="M83.41 3.756c-2.688-2.164-7.135-1.098-9.938 2.38l-28.39 40.336c-2.803 3.477-2.79 2.813-.104 4.975 2.685 2.164 2.038 2.32 4.84-1.158L83.196 13.97c2.803-3.48 2.9-8.053.215-10.216zm-7.3 4.828s-.417-.483-1.8-1.59c2.074-3.386 6.15-2.765 6.15-2.765-3.864 2.28-4.35 4.354-4.35 4.354z" fill="#193667"/>
  <path d="M96 17.386H83.516l-5.515 6h16v48H6v-48h51.19l4.228-6H4c-2.21 0-4 1.79-4 4v58c0 2.21 1.79 4 4 4h92c2.21 0 4-1.79 4-4v-58c0-2.21-1.79-4-4-4z" fill="#193667"/>
</svg>
