<svg xmlns="http://www.w3.org/2000/svg" viewBox="0 0 512 512" width="50" height="50">
  <path d="M446.812 493.966l-67.5-142.78c-1.346-2.85-3.68-5.033-6.48-6.224l-33.58-14.95 58.186-97.517c.14-.234.27-.47.395-.713 11.568-22.58 17.434-46.978 17.434-72.515 0-42.96-16.846-83.233-47.435-113.402C337.248 15.703 296.73-.588 253.745.015c-41.748.58-81.056 17.35-110.685 47.22-29.626 29.87-46.078 69.314-46.326 111.067-.152 25.515 5.877 50.923 17.43 73.48.125.24.256.478.395.712l58.183 97.517-33.774 15.032c-2.764 1.23-4.994 3.408-6.286 6.142L65.187 493.966c-2.26 4.775-1.306 10.453 2.388 14.23 3.693 3.777 9.345 4.86 14.172 2.71l84.558-37.645 84.558 37.647c3.27 1.455 7.006 1.455 10.277 0l84.558-37.646 84.558 37.647c1.652.735 3.4 1.093 5.135 1.093 3.332 0 6.61-1.318 9.038-3.803 3.69-3.778 4.643-9.454 2.384-14.23zm-310.34-274.06c-9.73-19.132-14.598-39.805-14.47-61.453.43-72.43 59.687-132.17 132.095-133.173 36.166-.486 70.263 13.2 95.993 38.576C375.828 89.24 390 123.123 390 159.268c0 21.36-4.868 41.757-14.472 60.638L266.85 402.054c-3.318 5.56-8.692 6.16-10.85 6.16-2.157 0-7.53-.6-10.848-6.16l-108.68-182.148zM350.835 447.89c-3.27-1.454-7.006-1.454-10.277 0L256 485.538l-84.56-37.646c-3.27-1.454-7.005-1.454-10.276 0l-58.578 26.08 50.938-107.748 32.258-14.356L223.45 415c6.904 11.57 19.072 18.48 32.547 18.48 13.475 0 25.643-6.91 32.547-18.48l37.668-63.133 32.26 14.36 50.936 107.745-58.574-26.08z" fill="#193667"/>
  <path d="M256.004 101.607c-31.794 0-57.66 25.865-57.66 57.658s25.866 57.658 57.66 57.658c31.793 0 57.658-25.865 57.658-57.658s-25.865-57.658-57.658-57.658zm0 90.05c-17.86 0-32.393-14.53-32.393-32.392 0-17.86 14.532-32.392 32.394-32.392 17.86 0 32.392 14.53 32.392 32.392s-14.53 32.392-32.392 32.392z" fill="#193667"/>
</svg>
