<svg xmlns="http://www.w3.org/2000/svg" width="100" height="95" viewBox="0 0 550.002 550.001">
  <path fill="#193667" d="M538.56 520.765H3.06l9.18 26.01h517.14M0 505.465h541.62v-351.9h-5.325l-5.46 5.463-10.82 10.82-1.48 1.48-42.433 42.43v237.857H65.518V207.413h296.658l53.846-53.847h-112.48c-.343-2.647-.495-5.18-.544-7.65-.05-2.65.09-5.187.355-7.65 5.816-53.657 83.86-64.5 107.23-111.788 8.713-17.625-17.678-33.137-26.422-15.444-15.604 31.576-54.565 42.48-80.24 64.153-18.87 15.934-28.907 39.122-30.73 63.08-.193 2.545-.288 5.094-.294 7.65-.01 2.55.067 5.103.245 7.65H0v351.898z"/>
  <path fill="#193667" d="M262.817 366.91l53.128-14.63 144.867-144.867 46.903-46.904-6.945-6.944-7.65-7.65-7.65-7.65-16.255-16.255-16.256 16.256-7.65 7.65-7.65 7.65-53.848 53.847L277.447 313.78M511.5 79.725l-29.984 29.985 28.552 28.556 7.65 7.65 2.296 2.295 2.295-2.294 7.65-7.65L550 118.226"/>
</svg>
