<?xml version="1.0" encoding="utf-8"?>
<!-- Generator: Adobe Illustrator 16.0.0, SVG Export Plug-In . SVG Version: 6.00 Build 0)  -->
<!DOCTYPE svg PUBLIC "-//W3C//DTD SVG 1.1//EN" "http://www.w3.org/Graphics/SVG/1.1/DTD/svg11.dtd">
<svg version="1.1" id="Capa_1" xmlns="http://www.w3.org/2000/svg" xmlns:xlink="http://www.w3.org/1999/xlink" x="0px" y="0px"
	 width="40px" height="40px" viewBox="0 0 40 40" enable-background="new 0 0 40 40" xml:space="preserve">
<g>
	<path fill="#003369" d="M20,40c11.047,0,20-8.953,20-20S31.047,0,20,0S0,8.953,0,20S8.953,40,20,40z M20,3.125
		c9.32,0,16.875,7.555,16.875,16.875S29.32,36.875,20,36.875S3.125,29.32,3.125,20S10.68,3.125,20,3.125z"/>
	<g>
		<path fill="#003369" d="M21.322,25.508l2.33,1.992c2.893-2.123,5.098-5.906,5.098-9.956c0-3.251-1.824-5.044-3.904-5.044
			c-1.889,0-3.398,1.592-3.398,3.588c0,1.924,1.32,3.381,3.084,3.381c0.314,0,0.754-0.132,0.82-0.132
			C25.098,21.46,23.338,24.113,21.322,25.508z"/>
		<path fill="#003369" d="M14.458,19.469c0.253,0,0.696-0.132,0.82-0.132c-0.251,2.123-2.015,4.776-4.028,6.171l2.329,1.992
			c2.894-2.123,5.097-5.906,5.097-9.956c0-3.251-1.822-5.044-3.902-5.044c-1.887,0-3.396,1.592-3.396,3.588
			C11.377,18.012,12.693,19.469,14.458,19.469z"/>
	</g>
</g>
</svg>
