<svg xmlns="http://www.w3.org/2000/svg" width="40" height="40" viewBox="0 0 40 40">
  <g fill="#003369">
    <path d="M20 40c11.047 0 20-8.953 20-20S31.047 0 20 0 0 8.953 0 20s8.953 20 20 20zm0-36.875c9.32 0 16.875 7.555 16.875 16.875S29.32 36.875 20 36.875 3.125 29.32 3.125 20 10.68 3.125 20 3.125z"/>
    <path d="M21.322 25.508l2.33 1.992c2.893-2.123 5.098-5.906 5.098-9.956 0-3.25-1.824-5.044-3.904-5.044-1.89 0-3.398 1.592-3.398 3.588 0 1.924 1.32 3.38 3.084 3.38.314 0 .754-.13.82-.13-.254 2.122-2.014 4.775-4.03 6.17zM14.458 19.47c.253 0 .696-.133.82-.133-.25 2.123-2.015 4.776-4.028 6.17l2.33 1.993c2.893-2.123 5.096-5.906 5.096-9.956 0-3.25-1.822-5.044-3.902-5.044-1.887 0-3.396 1.592-3.396 3.588 0 1.924 1.315 3.38 3.08 3.38z"/>
  </g>
</svg>
