<svg xmlns="http://www.w3.org/2000/svg" width="40" height="40" viewBox="0 0 512 512">
  <g fill="#003369">
    <path d="M256 0C114.61 0 0 114.61 0 256s114.61 256 256 256 256-114.61 256-256S397.39 0 256 0zm0 472c-119.297 0-216-96.703-216-216S136.703 40 256 40s216 96.703 216 216-96.703 216-216 216z"/>
    <path d="M239.078 185.492L209.25 160C172.22 187.18 144 235.61 144 287.438c0 41.61 23.344 64.562 49.97 64.562 24.17 0 43.5-20.375 43.5-45.922 0-24.625-16.892-43.28-39.47-43.28-4.03 0-9.656 1.687-10.5 1.687 3.25-27.173 25.78-61.14 51.578-78.993zM326.938 262.797c-3.233 0-8.922 1.688-10.5 1.688 3.203-27.17 25.78-61.14 51.562-78.99L338.188 160c-37.03 27.18-65.233 75.61-65.233 127.438 0 41.61 23.328 64.562 49.953 64.562 24.14 0 43.47-20.375 43.47-45.922-.003-24.625-16.862-43.28-39.44-43.28z"/>
  </g>
</svg>
