<svg xmlns="http://www.w3.org/2000/svg" width="50" height="50" viewBox="0 0 430.123 430.123">
  <path d="M412.164 246.198c1.605-10.155 2.45-20.544 2.45-31.148 0-110.215-89.342-199.555-199.56-199.555-10.576 0-20.995.87-31.14 2.458C165.533 6.58 143.84 0 120.593 0 53.997 0 .005 53.984.005 120.59c0 23.242 6.586 44.916 17.953 63.332-1.573 10.172-2.44 20.528-2.44 31.132 0 110.223 89.34 199.536 199.533 199.536 10.585 0 21.007-.816 31.152-2.417 18.398 11.35 40.072 17.95 63.314 17.95 66.617 0 120.602-54 120.602-120.603.005-23.25-6.576-44.92-17.954-63.322zM309.8 305.81c-8.44 12.153-20.842 21.65-37.046 28.48-16.237 6.846-35.428 10.253-57.59 10.253-26.562 0-48.554-4.648-65.913-14.034-12.304-6.722-22.312-15.738-30.006-26.98-7.71-11.253-11.62-22.272-11.62-33.016 0-6.338 2.418-11.85 7.123-16.344 4.754-4.527 10.877-6.796 18.104-6.796 5.92 0 11.006 1.783 15.146 5.316 4.11 3.532 7.556 8.667 10.375 15.443 3.38 7.85 7.05 14.412 10.955 19.648 3.88 5.172 9.343 9.49 16.417 12.868 6.996 3.388 16.307 5.082 27.958 5.082 15.945 0 28.83-3.45 38.693-10.253 9.912-6.866 14.673-15.22 14.673-25.314 0-8.05-2.567-14.445-7.83-19.43-5.313-5.05-12.173-8.896-20.686-11.58-8.546-2.71-20.02-5.585-34.4-8.614-19.307-4.215-35.455-9.12-48.532-14.753-13.094-5.654-23.522-13.383-31.25-23.146-7.746-9.858-11.608-22.112-11.608-36.626 0-13.84 4.077-26.217 12.24-36.99 8.157-10.8 19.96-19.07 35.35-24.828 15.336-5.757 33.39-8.637 54.075-8.637 16.54 0 30.85 1.913 42.96 5.72 12.078 3.837 22.146 8.9 30.196 15.25 8 6.34 13.886 13.024 17.614 20.04 3.725 7.035 5.6 13.907 5.6 20.613 0 6.235-2.416 11.89-7.126 16.846-4.71 4.962-10.733 7.492-17.768 7.47-6.342 0-11.317-1.464-14.767-4.56-3.36-2.997-6.89-7.767-10.706-14.415-4.825-9.276-10.604-16.503-17.324-21.672-6.543-5.073-17.338-7.714-32.36-7.682-13.897 0-25.017 2.84-33.41 8.395-8.445 5.643-12.482 12.19-12.5 19.86.013 4.808 1.395 8.86 4.176 12.327 2.823 3.498 6.752 6.53 11.802 9.084 5.052 2.595 10.19 4.602 15.355 6.046 5.225 1.48 13.894 3.622 25.944 6.457 15.113 3.256 28.82 6.895 41.137 10.86 12.293 3.987 22.784 8.794 31.45 14.52 8.737 5.71 15.565 12.99 20.44 21.784 4.908 8.807 7.353 19.564 7.353 32.222.02 15.242-4.227 28.95-12.69 41.084z" fill="#193667"/>
</svg>
